<?xml version="1.0" standalone="no"?>
<!DOCTYPE svg PUBLIC "-//W3C//DTD SVG 1.1//EN" "http://www.w3.org/Graphics/SVG/1.1/DTD/svg11.dtd" >
<svg xmlns="http://www.w3.org/2000/svg">
<metadata></metadata>
<defs>
<font id="francophilsansbold" horiz-adv-x="1112" >
<font-face units-per-em="2048" ascent="1638" descent="-410" />
<missing-glyph horiz-adv-x="477" />
<glyph horiz-adv-x="2048" />
<glyph horiz-adv-x="2048" />
<glyph horiz-adv-x="682" />
<glyph horiz-adv-x="696" d="M-6 1507q26 -167 125 -251q84 -72 219 -72q289 0 346 323h-178q-20 -80 -64.5 -109.5t-103.5 -29.5t-102 29.5t-64 109.5h-178z" />
<glyph horiz-adv-x="528" d="M96 1204l271 2v273h-271v-275z" />
<glyph horiz-adv-x="561" d="M55 1352q0 -88 65 -153q64 -64 152 -64q89 0 153 64t64 153q0 90 -64 152q-66 65 -153 65q-86 0 -152 -65q-65 -63 -65 -152zM209 1352q0 29 17.5 46t45.5 17q29 0 46.5 -17.5t17.5 -45.5h-2q0 -29 -16.5 -46.5t-45.5 -17.5t-46 17.5t-17 46.5z" />
<glyph unicode="&#xa;" horiz-adv-x="694" d="M14 1137l156 -56q43 47 81 85l79 79q72 72 182 195l-236 73zM328 1137l155 -56l342 359l-235 73z" />
<glyph horiz-adv-x="565" d="M94 -217q0 -92 52.5 -135t128.5 -43t137 28.5t120 100.5l-94 78q-69 -55 -82.5 -56.5t-22.5 -1.5t-20.5 9.5t-11.5 48.5q0 83 176 223h-186q-131 -67 -179 -173q-18 -38 -18 -79z" />
<glyph horiz-adv-x="688" d="M-25 1489l289 -340h135l289 340l-244 12l-112 -147l-113 147z" />
<glyph unicode="&#xd;" horiz-adv-x="528" d="M127 -35h248l-4 1125h-244v-1125z" />
<glyph horiz-adv-x="272" d="M-360 -59h215l852 1538h-213z" />
<glyph horiz-adv-x="1163" d="M-18 877h196v-912h246l-2 914h235v211h-237v61q0 174 99 174q45 0 120 -33l6 224l-139 20q-170 0 -250 -108.5t-80 -297.5v-43h-194v-210zM705 1366q0 -59 42 -100t101 -41t101 41t42 100t-42 101t-101 42t-101 -42t-42 -101zM731 -35h246v1125h-246v-1125z" />
<glyph horiz-adv-x="1163" d="M-18 877h196v-912h246l-2 914h235v211h-237v55q0 180 100 180q43 0 119 -33l6 224l-127 20q-180 0 -261 -105.5t-81 -300.5v-43h-194v-210zM741 -35h248v78l-2 498l-2 673v297h-244v-1546z" />
<glyph horiz-adv-x="958" d="M-23 348l142 101v-484h815l4 236h-561v436l307 221v229l-307 -221v588h-260v-776l-140 -100v-230z" />
<glyph horiz-adv-x="489" d="M-6 489l125 107v-631h196l47 2v836l121 104v244l-123 -104v464h-243v-671l-123 -107v-244z" />
<glyph horiz-adv-x="1071" d="M0 -35h987v236h-672l656 1054v199h-942v-233h624l-653 -1041v-215zM162 1843l289 -340h135l288 340l-243 12l-113 -147l-112 147z" />
<glyph horiz-adv-x="897" d="M23 -35h817v213h-525l510 733v179h-768v-213h453l-487 -715v-197zM78 1489l289 -340h135l289 340l-244 12l-113 -147l-112 147z" />
<glyph unicode=" "  horiz-adv-x="477" />
<glyph unicode="&#x09;" horiz-adv-x="477" />
<glyph unicode="&#xa0;" horiz-adv-x="477" />
<glyph unicode="!" horiz-adv-x="657" d="M186 1456l50 -1114h200l31 625l20 489h-301zM193 117q0 -59 42 -101.5t101 -42.5t101 42t42 102q0 59 -42 101t-101 42t-101 -42t-42 -101z" />
<glyph unicode="&#x22;" horiz-adv-x="983" d="M205 1188l26 -305h201l27 303l-2 268h-250zM520 1188l27 -305h201l26 303l-2 268h-250z" />
<glyph unicode="#" horiz-adv-x="1116" d="M10 391h176l-69 -426h215l69 428h164l-69 -428h215l69 428h213v211h-180l37 225h209v211h-176l67 414h-215l-67 -416h-164l67 416h-215l-67 -416h-213v-211h180l-37 -225h-209v-211zM434 602l37 227h164l-37 -227h-164z" />
<glyph unicode="$" horiz-adv-x="1124" d="M88 188q66 -121 174 -168q80 -35 180 -45v-198h189v207q129 29 217 100q135 117 135 307q0 178 -82 281q-84 107 -278 176q-173 62 -223 112q-25 25 -30 50.5t-5 56.5q0 76 53 121t144 45t149.5 -33t113.5 -110l117 180q-107 162 -313 182v188h-189v-194 q-119 -27 -204 -96q-125 -111 -125 -297q0 -245 221 -366q69 -38 151 -64.5t128 -51t72 -51.5q44 -47 44 -128t-62.5 -137t-166.5 -56q-196 0 -291 186z" />
<glyph unicode="%" horiz-adv-x="1695" d="M96 1053q0 -188 77 -303q80 -119 228 -119q146 0 228 121q78 114 78 303q0 294 -173 390q-57 32 -133 32q-162 0 -233.5 -115t-71.5 -309zM238 -59h227l950 1538h-229zM317 1056q0 108 13.5 167t69.5 59t69.5 -59.5t13.5 -169.5h-2q0 -104 -13 -168t-65.5 -64t-69 63.5 t-16.5 171.5zM907 365q0 -188 77 -303q80 -119 228 -119t230 121q78 114 78 303q0 295 -172 389q-58 32 -136 32q-305 0 -305 -423zM1128 367q0 107 13.5 167t69.5 60t70.5 -60t14.5 -166.5t-15 -170.5t-67.5 -64t-69 63.5t-16.5 170.5z" />
<glyph unicode="&#x26;" horiz-adv-x="1345" d="M82 383q0 -182 120 -307q126 -133 335.5 -133t347.5 118q66 -100 151 -96l248 6v135l-88 -6q-72 72 -141 156q67 90 112 211q57 138 68 321l-242 21q-4 -139 -21 -200q-27 -98 -59 -158q-78 106 -206 301q40 23 133 100q127 111 127 287q0 160 -105 252q-98 86 -252 86 q-146 0 -246 -97q-98 -94 -98 -250q0 -100 32 -173.5t73 -139.5q-129 -66 -191 -141q-98 -121 -98 -293zM346 388q0 101 44 154.5t104 94.5l268 -395q-86 -86 -182 -86t-165 65.5t-69 166.5zM506 1118.5q0 75.5 36 110.5t79.5 35t76.5 -33t33 -109h-2q0 -84 -65 -141 q-31 -27 -78 -57q-80 119 -80 194.5z" />
<glyph unicode="'" horiz-adv-x="538" d="M152 1188l26 -305h201l27 303l-3 268h-249z" />
<glyph unicode="(" horiz-adv-x="593" d="M70 584q0 -256 103 -542q76 -211 189 -392h226q-174 316 -243 670q-26 133 -26 264q0 235 91 522q68 214 178 414h-226q-190 -309 -262 -654q-30 -139 -30 -282z" />
<glyph unicode=")" horiz-adv-x="593" d="M-14 -350h225q189 294 264 652q29 139 29 282q0 377 -197 766q-51 100 -96 170h-225q175 -318 242 -671q26 -134 26 -265q0 -238 -90 -520q-68 -215 -178 -414z" />
<glyph unicode="*" horiz-adv-x="1146" d="M135 870l117 -202l246 170l-27 -297h234l-27 297l246 -170l116 202l-266 127l266 127l-116 203l-246 -170l27 297h-234l27 -297l-246 170l-117 -203l266 -127z" />
<glyph unicode="+" horiz-adv-x="1163" d="M39 438h403v-444h228v446h399v228h-401v438h-228v-440h-401v-228z" />
<glyph unicode="," horiz-adv-x="587" d="M55 -303h201l178 434l-4 135h-289z" />
<glyph unicode="-" horiz-adv-x="522" d="M-8 539h510v190h-510v-190z" />
<glyph unicode="." horiz-adv-x="366" d="M20 117q0 -59 41 -101.5t101.5 -42.5t101.5 42t41 102q0 59 -42 101t-101.5 41t-100.5 -42t-41 -100z" />
<glyph unicode="/" horiz-adv-x="800" d="M-143 -96h231l664 1573h-232z" />
<glyph unicode="0" horiz-adv-x="1067" d="M33 709q0 -543 265 -710q89 -56 210 -56q233 0 358 213q117 199 117 553q0 543 -265 711q-89 57 -209 57t-209 -56.5t-148 -158.5q-119 -205 -119 -553zM301 709.5q0 275.5 56.5 410.5t150.5 135t150.5 -135t56.5 -411h-2q0 -274 -55.5 -409.5t-149.5 -135.5t-150.5 135 t-56.5 410.5z" />
<glyph unicode="1" horiz-adv-x="1134" d="M186 1122l93 -196q115 78 158 106q70 45 116 86v-966h-264l-4 -187h764l-2 189h-240v1300h-207q-161 -172 -414 -332z" />
<glyph unicode="2" horiz-adv-x="1120" d="M59 -35h938l9 228h-605q72 66 139.5 133t122 120.5t106.5 114t99 135.5q115 185 115 330q0 200 -129 326q-129 125 -340 125q-112 0 -290 -99q-66 -37 -110 -68l-44 -30l127 -176q12 8 42.5 32.5t71.5 49.5q104 65 192.5 65t151 -61.5t62.5 -159.5q0 -172 -193 -379 q-113 -117 -227.5 -225.5t-237.5 -226.5v-234z" />
<glyph unicode="3" horiz-adv-x="1120" d="M41 88l41 -22q110 -61 219 -92t206 -31t193.5 29.5t167.5 85.5q148 120 148 321q0 263 -230 360q94 47 150.5 131t56.5 183.5t-34.5 177.5t-96.5 132q-132 114 -338 114q-115 0 -294 -81q-64 -30 -105 -56l-41 -25l53 -92l60 -84q190 114 302.5 114t169 -53t56.5 -149 t-79 -160t-210 -64h-164v-202h172q145 0 223 -59.5t78 -169t-72.5 -169t-211.5 -59.5q-69 0 -150.5 31.5t-113 49t-43.5 23.5z" />
<glyph unicode="4" horiz-adv-x="1126" d="M2 291h610v-326h254v328h203v221h-205v940h-309l-553 -973v-190zM295 514l317 614l-2 -614h-315z" />
<glyph unicode="5" horiz-adv-x="1116" d="M74 78l38 -22q91 -51 193.5 -82t191.5 -31t187 37.5t169 106.5q151 147 151 370q0 214 -136 359q-134 142 -340 142q-98 0 -186 -49l16 318h582l21 227h-832l-31 -817l111 -21q106 119 262 119q121 0 194.5 -77.5t73.5 -206.5t-75.5 -207t-198.5 -78q-116 0 -246 78 q-29 18 -41 24z" />
<glyph unicode="6" horiz-adv-x="1120" d="M47 666q0 -352 137 -541q133 -182 369 -182q207 0 339 143q132 144 132 360q0 214 -116 354q-119 142 -299.5 142t-305.5 -121q12 152 57 262q70 168 250 168q108 0 230 -75q26 -17 37 -23l122 199l-39 20q-100 50 -196 77.5t-158 27.5q-269 0 -416 -221 q-143 -213 -143 -590zM328 446q8 131 72.5 202t153.5 71t149.5 -73t60.5 -200h-2q0 -122 -62 -202q-58 -76 -152.5 -76t-160.5 90q-43 54 -59 188z" />
<glyph unicode="7" horiz-adv-x="1122" d="M68 1223h630q-337 -611 -456 -1258h274q124 683 475 1307v182h-913z" />
<glyph unicode="8" horiz-adv-x="1118" d="M23 388.5q0 -113.5 39.5 -191.5t109.5 -135q148 -119 363 -119q223 0 364 117q145 121 145 315q0 260 -256 385q211 127 211 340q0 170 -131 274q-129 103 -327 103q-211 0 -339 -105q-134 -109 -134 -282q0 -223 213 -345q-111 -53 -184.5 -148t-73.5 -208.5zM287 372 q0 91 57 149.5t162 105.5q191 -60 250 -172q20 -39 20 -86q0 -92 -62.5 -149.5t-176 -57.5t-182 59.5t-68.5 150.5zM328 1087q0 69 61 119q64 51 156 51t144 -46t52 -124h-2q0 -110 -117 -192q-32 -23 -65 -37q-96 43 -162.5 97.5t-66.5 131.5z" />
<glyph unicode="9" horiz-adv-x="1120" d="M41 975q0 -217 117 -355q122 -143 309 -143q123 0 229 66q34 17 70 53q-12 -147 -61 -258q-76 -170 -248 -170q-83 0 -152 30.5t-95 43.5l-26 14l-112 -203l38 -17q92 -44 191.5 -68.5t159.5 -24.5q271 0 415 219q142 215 142 589q0 181 -36 317t-102 226 q-133 183 -368 183q-203 0 -338 -143q-133 -142 -133 -359zM303 969q0 123 63 205q61 77 158 77t156 -86q45 -61 61 -198q-2 -125 -66.5 -196t-152.5 -71q-95 0 -156 74q-63 78 -63 195z" />
<glyph unicode=":" horiz-adv-x="507" d="M143 117q0 -59 42 -101.5t102 -42.5q59 0 101 42t42 102q0 59 -42 101t-101 42t-101.5 -42t-42.5 -101zM147 915q0 -59 42 -100t102 -41q59 0 101 41t42 100q0 60 -42 102t-101 42t-101.5 -42t-42.5 -102z" />
<glyph unicode=";" horiz-adv-x="538" d="M55 -303h201l178 434l-4 135h-289zM147 915q0 -59 42 -100t102 -41q59 0 101 41t42 100q0 60 -42 102t-101 42t-101.5 -42t-42.5 -102z" />
<glyph unicode="&#x3c;" horiz-adv-x="1161" d="M53 469l1008 -473v229l-682 324l682 323v230l-1008 -473v-160z" />
<glyph unicode="=" horiz-adv-x="1155" d="M27 227h1030v230h-1030v-230zM27 641l1030 2v227h-1030v-229z" />
<glyph unicode="&#x3e;" horiz-adv-x="1161" d="M53 -4l1008 473v160l-1008 473v-230l682 -323l-682 -324v-229z" />
<glyph unicode="?" horiz-adv-x="991" d="M61 1309l56 -92l55 -82q12 6 43 24.5t71 36.5q104 47 184.5 47t130.5 -50t50 -135t-40 -144.5t-103 -106.5q-100 -96 -125 -153q-37 -85 -37 -191v-121h242v111q0 60 18 93q24 48 90 116q226 160 226 411q0 76 -31 148.5t-89 130.5q-125 125 -327 125q-119 0 -281 -85 q-59 -30 -96 -56zM315 117q0 -59 42 -101.5t102 -42.5q59 0 101 42t42 102q0 59 -42 101t-101 42t-101.5 -42t-42.5 -101z" />
<glyph unicode="@" horiz-adv-x="1550" d="M57 485q0 145 56.5 279.5t152.5 237t227 164t277.5 61.5t266.5 -49.5t207 -133t135 -194.5t48 -230t-38.5 -222t-102 -181t-142.5 -124t-168 -46t-145 105q-101 -101 -194 -101q-99 0 -182 89q-86 93 -86 231q0 195 109 350q118 168 296 168q94 0 187 -117l20 76h172 l-143 -559q-4 -10 -4 -17v-16q0 -18 11 -33.5t38 -15.5t64.5 32.5t70.5 88.5q78 134 78 297q0 191 -150 321q-144 125 -342 125q-218 0 -376 -172q-160 -174 -160 -422q0 -240 168 -413q162 -165 389 -175l4 -151q-170 4 -307.5 66.5t-234.5 165t-149.5 236.5t-52.5 279z M555 403.5q0 -102.5 40 -140.5t86 -38t88 30t71 78q63 102 63 232q0 68 -34.5 112t-84 44t-90.5 -29.5t-72 -77.5q-67 -108 -67 -210.5z" />
<glyph unicode="A" horiz-adv-x="1226" d="M-33 -35h256l115 385h498l122 -385h273l-500 1489h-260zM412 569l178 549l176 -549h-354z" />
<glyph unicode="B" horiz-adv-x="1206" d="M115 -35h508q211 0 335 109q127 110 127 303q0 265 -196 366q103 61 145 200q15 52 15 122q0 193 -123 291t-336 98h-475v-1489zM375 193v434h186q258 0 258 -219q0 -215 -237 -215h-207zM375 846v385h211q102 0 153.5 -48t51.5 -134h-3q0 -102 -55 -152.5t-180 -50.5 h-178z" />
<glyph unicode="C" horiz-adv-x="1159" d="M51 705q0 -335 173 -547q176 -215 460 -215q106 0 270 89q62 34 83 48l63 43l-119 180q-193 -129 -279 -129t-154.5 38t-117.5 108q-104 147 -104 393t104 392q99 140 279 140q87 0 266 -149l121 176l-36 32q-97 84 -197.5 128.5t-172.5 44.5q-293 0 -468 -215 q-171 -212 -171 -557z" />
<glyph unicode="D" horiz-adv-x="1347" d="M123 -35h461q304 0 484 207q173 199 173 540q0 163 -47 298t-134 233q-187 211 -491 211h-446v-1489zM383 199v1022h186q193 0 298.5 -133t105.5 -380t-102.5 -378t-288.5 -131h-199z" />
<glyph unicode="E" horiz-adv-x="1083" d="M127 -35h852v236h-592v424h549v231h-549v363h500v235h-760v-1489z" />
<glyph unicode="F" horiz-adv-x="940" d="M111 -35h264l-2 660h547l-5 231h-542v363h487v235h-749v-1489z" />
<glyph unicode="G" horiz-adv-x="1329" d="M55 709q0 -341 173 -553q175 -213 468 -213q93 0 139 19q69 27 123 71l17 -66h190v817h-583v-229h323v-240q-10 -55 -58 -98t-131 -43t-156 37t-124 105q-108 146 -108 389q0 249 106 395q105 145 277 145q72 0 201 -63q63 -32 132 -78l119 186l-42 29q-112 78 -221 118 t-183 40q-299 0 -481 -215q-181 -213 -181 -553z" />
<glyph unicode="H" horiz-adv-x="1349" d="M129 -35h260v660h518v-660h258v1489h-260v-594h-518v594h-258v-1489z" />
<glyph unicode="I" horiz-adv-x="514" d="M133 -35h262v1489h-262v-1489z" />
<glyph unicode="J" horiz-adv-x="755" d="M-10 -23q110 -38 198 -38q199 0 304.5 117.5t105.5 328.5v1069h-260v-1042q0 -194 -98 -226q-33 -10 -69 -10q-41 0 -73 5q-36 6 -108 28v-232z" />
<glyph unicode="K" horiz-adv-x="1255" d="M133 -35h262v496l84 114l471 -610h332l-600 838l528 651h-325l-492 -647v647h-260v-1489z" />
<glyph unicode="L" horiz-adv-x="958" d="M119 -25h817l2 234h-559v1253h-260v-1487z" />
<glyph unicode="M" horiz-adv-x="1732" d="M123 -35h250v1073l354 -1073h199l352 1069v-1069h258v1489h-362l-336 -1081l-351 1081h-364v-1489z" />
<glyph unicode="N" horiz-adv-x="1345" d="M127 -35h248v1090l510 -1049l18 -41h275v1489h-248v-1036l-494 1036h-309v-1489z" />
<glyph unicode="O" horiz-adv-x="1386" d="M49 709q0 -337 166 -549q169 -217 444 -217q276 0 445 217q166 212 166 549q0 338 -166 551q-170 217 -445 217q-274 0 -444 -217q-166 -213 -166 -551zM319 709q0 247 95 395q91 141 245 141q155 0 246 -141q94 -146 94 -395h-2q0 -249 -94 -393q-94 -142 -244 -142 q-151 0 -245 142q-95 145 -95 393z" />
<glyph unicode="P" horiz-adv-x="1083" d="M94 -35h262v576h207q212 0 337 121q128 124 128 337t-131 334t-360 121h-443v-1489zM354 770v451h176q104 0 167 -61.5t63 -164.5h-2q0 -109 -57.5 -168t-161.5 -59z" />
<glyph unicode="Q" horiz-adv-x="1386" d="M47 709q0 -314 147 -523q148 -211 398 -239q0 -40 20.5 -101t49.5 -107q72 -112 208 -112q286 0 347 324h-179q-20 -80 -64 -109.5t-104 -29.5q-29 0 -49 61q-8 25 -15 49.5t-20 36.5q14 4 35 9t53 14q143 66 232 178q168 217 168 552t-168 550t-447 215t-447 -217 q-165 -215 -165 -551zM317 709q0 244 97 395q91 141 245 141q156 0 249 -141q96 -146 96 -395h-3q0 -249 -94 -393q-94 -142 -248 -142q-151 0 -245 142q-97 148 -97 393z" />
<glyph unicode="R" horiz-adv-x="1206" d="M119 -35h260v625h186q51 -45 80 -99.5t50.5 -106.5t54.5 -124l135 -295h289l-160 336q-27 57 -50.5 109.5t-45.5 97.5q-38 81 -84 158q123 47 176 145t53 219q0 209 -124 316.5t-351 107.5h-469v-1489zM379 819v402h215q98 0 150.5 -50.5t52.5 -144.5t-59.5 -150.5 t-170.5 -56.5h-188z" />
<glyph unicode="S" horiz-adv-x="1077" d="M37 119l43 -28q106 -69 218 -108.5t203 -39.5t184 30.5t161 88.5q141 120 141 321q0 184 -86 291q-85 107 -297 182q-245 84 -264 165q-6 26 -6 56q0 78 54 124t163 46t268 -119l123 203l-42 23q-231 123 -351.5 123t-205.5 -29t-145 -83q-128 -114 -128 -306 q0 -255 231 -374q74 -38 159 -66t134 -53t76 -54q49 -51 49 -135q0 -83 -65 -143q-65 -58 -171 -58q-96 0 -209 62q-64 34 -120 81z" />
<glyph unicode="T" horiz-adv-x="1036" d="M-29 1217h389v-1252h261v1254h391v235h-1041v-237z" />
<glyph unicode="U" horiz-adv-x="1333" d="M119 528q0 -276 130 -430.5t388 -154.5q248 0 381 159q131 154 131 433v919h-246v-887q0 -207 -62.5 -298t-199.5 -91t-199.5 87t-62.5 288v901h-260v-926z" />
<glyph unicode="V" horiz-adv-x="1179" d="M-49 1454l487 -1489h252l490 1489h-260l-347 -1132l-342 1132h-280z" />
<glyph unicode="W" horiz-adv-x="1781" d="M-47 1454l375 -1489h284l236 1063l252 -1063h278l369 1489h-258l-240 -1075l-256 1075h-276l-240 -1073l-248 1073h-276z" />
<glyph unicode="X" horiz-adv-x="1177" d="M-61 -35h288l330 572l334 -572h309l-473 789l422 700h-283l-288 -502l-285 502h-305l424 -717z" />
<glyph unicode="Y" horiz-adv-x="1198" d="M-57 1454l501 -868v-621h261v621l491 868h-281l-329 -610l-338 610h-305z" />
<glyph unicode="Z" horiz-adv-x="1071" d="M0 -35h987v236h-672l656 1054v199h-942v-233h624l-653 -1041v-215z" />
<glyph unicode="[" horiz-adv-x="598" d="M115 -346l147 -2l264 -2v194h-182v1483h182v193l-264 -2l-147 -2v-1862z" />
<glyph unicode="\" horiz-adv-x="800" d="M-186 1477l649 -1573h233l-649 1573h-233z" />
<glyph unicode="]" horiz-adv-x="610" d="M66 -158v-192l264 2l147 2v1862l-147 2l-264 2v-195h182v-1483h-182z" />
<glyph unicode="^" horiz-adv-x="1157" d="M98 535h230l223 595l227 -595l230 2l-367 917h-180z" />
<glyph unicode="_" horiz-adv-x="1042" d="M-10 -295v-182h1011v182h-1011z" />
<glyph unicode="`" horiz-adv-x="612" d="M6 1405q53 -28 133 -92t128 -104t100 -81l170 68q-89 61 -156 140q-119 142 -172 180q-35 -17 -86.5 -32t-73.5 -30.5t-43 -48.5z" />
<glyph unicode="a" horiz-adv-x="1054" d="M53 301q0 -168 98.5 -263t270 -95t287.5 127l14 -105h207v70q-2 0 1 40t3 95v483q0 231 -93 346t-311 115q-187 0 -360 -76q-35 -16 -45 -20l47 -184q213 71 318.5 71t152.5 -48t47 -167v-8h-134q-259 0 -392 -116q-111 -97 -111 -265zM311 288q0 50 16.5 86t53.5 62 q72 49 215 49h22l72 -4v-39q0 -122 -66 -204q-66 -84 -167 -84q-70 0 -108 42t-38 92z" />
<glyph unicode="b" horiz-adv-x="1097" d="M94 -35h201l18 109q51 -59 123 -95t163 -36t171 45t134 125q110 163 110 430q0 254 -109 409q-113 162 -313 162q-150 0 -252 -115v512h-246v-1546zM338 494v92q0 134 64 226q63 89 153 89t146.5 -93t56.5 -282h-2q0 -180 -57.5 -275t-143.5 -95q-91 0 -153 91 q-64 96 -64 247z" />
<glyph unicode="c" horiz-adv-x="856" d="M23 530q0 -256 133 -418q139 -169 352 -169q91 0 209 83q43 31 56 44l40 41l-113 157q-53 -63 -130 -97q-29 -13 -60 -13q-100 0 -164.5 96t-64.5 278q0 164 67 268q64 99 160 99q59 0 156 -65q22 -15 32 -23l113 150l-29 23q-163 130 -277 130t-203 -45t-150 -123 q-127 -160 -127 -416z" />
<glyph unicode="d" horiz-adv-x="1103" d="M37 545q0 -271 109 -432q116 -170 319 -170q160 0 270 133l15 -111h211v1546h-246v-503q-106 106 -254 106q-194 0 -311 -163q-113 -156 -113 -406zM297 537.5q0 183.5 57.5 274.5t147.5 91q86 0 146 -82q67 -92 67 -243v-89q0 -146 -66 -240q-66 -93 -151.5 -93t-143 99 t-57.5 282.5z" />
<glyph unicode="e" horiz-adv-x="1042" d="M35 532q0 -277 129 -430q134 -159 377 -159q135 0 354 77l41 15l-53 94l-43 113q-86 -43 -172 -63.5t-123 -20.5q-217 0 -250 307h676l-8 59q-4 269 -119 426q-121 164 -336 164q-213 0 -344 -165q-129 -161 -129 -417zM299 666q14 88 51 147q57 92 156 92q74 0 127 -60 t63 -179h-397z" />
<glyph unicode="f" horiz-adv-x="641" d="M-18 877h194v-912h244v914h217v211h-217v65q0 92 26.5 125t89.5 33t126 -19l6 224q-4 0 -29 5q-64 13 -108 13q-17 0 -31 -2q-152 -16 -238 -113.5t-86 -290.5v-43h-194v-210z" />
<glyph unicode="g" horiz-adv-x="1024" d="M8 -150q0 -159 134 -238q124 -73 358 -73q354 0 460 173q37 61 37 145t-31.5 140t-85.5 92q-107 70 -270 79q-35 4 -68.5 5t-62 5t-53.5 7t-56 11q-59 13 -59 46q0 25 16.5 37t41.5 22q53 -16 128.5 -16t150.5 29.5t128 83.5q111 115 111 304q0 117 -53 205l186 107 l-76 176l-248 -139q-90 63 -195.5 63t-179 -29.5t-127.5 -82.5q-112 -113 -112 -293.5t113 -298.5q-33 -20 -58 -56q-47 -59 -47 -145t60 -146q-140 -83 -142 -213zM236 -134q0 48 129 105q53 -15 177 -20.5t172 -34t48 -59.5q0 -115 -260 -115q-218 0 -255 76 q-11 22 -11 48zM311 697q0 95 50.5 150.5t123.5 55.5q74 0 122 -53t48 -152h-2q0 -198 -168 -198h-2q-78 0 -125 51t-47 146z" />
<glyph unicode="h" d="M104 -35h244v561q0 186 66.5 279.5t163.5 93.5q70 0 110.5 -56.5t40.5 -174.5v-703h244v682q0 216 -89 341q-91 126 -262 126t-274 -121v518h-244v-1546z" />
<glyph unicode="i" horiz-adv-x="528" d="M117 1366q0 -59 42 -100t100 -41t101 41q41 41 41 100t-42 101t-101 42t-100 -42t-41 -101zM137 -35h244v1125h-244v-1125z" />
<glyph unicode="j" horiz-adv-x="479" d="M-102 -428q83 -23 145 -23q160 0 231.5 103t71.5 293v1145h-244v-1123q0 -119 -21.5 -157.5t-68.5 -38.5l-108 16zM86 1366q0 -59 42 -101t101 -42t101 42q42 41 42 98q0 61 -42 104q-41 42 -101 42q-59 0 -101 -42t-42 -101z" />
<glyph unicode="k" horiz-adv-x="1021" d="M109 -35h243v426l49 53l328 -479h309l-452 664l420 461h-318l-336 -418v839h-243v-1546z" />
<glyph unicode="l" horiz-adv-x="528" d="M129 -35h244v1546h-244v-1546z" />
<glyph unicode="m" horiz-adv-x="1640" d="M94 -35h244v574q0 184 57.5 272t134.5 88q129 0 129 -250v-684h244v578q0 184 55.5 270t135.5 86q127 0 127 -250v-684h243v709q0 315 -182 408q-61 32 -152 32t-165 -50t-121 -122q-37 78 -105.5 125t-167.5 47q-147 0 -239 -110v86h-238v-1125z" />
<glyph unicode="n" d="M96 -35h246v561q0 186 66.5 279.5t149.5 93.5q165 0 165 -231v-703h182l62 -2v684q0 213 -89.5 340t-266.5 127t-277 -125v101h-238v-1125z" />
<glyph unicode="o" horiz-adv-x="1107" d="M39 528q0 -250 137 -416q138 -169 352 -169q213 0 352 169q136 166 136 417q0 124 -35 231.5t-99 185.5q-139 168 -354 168q-216 0 -354 -168q-135 -163 -135 -418zM299 527q0 177 66.5 275.5t162.5 98.5t162 -98t66 -275h-2q0 -180 -63.5 -276t-162.5 -96 q-98 0 -163.5 97t-65.5 274z" />
<glyph unicode="p" horiz-adv-x="1097" d="M104 -424h246v473q106 -106 254 -106q193 0 308 167q112 160 112 416q0 260 -112 420q-117 168 -312 168q-164 0 -270 -139l-13 115h-213v-1514zM346 473v133q26 196 140 268q36 23 77 23q90 0 144.5 -92t54.5 -285h-2q0 -160 -60 -266q-54 -96 -135 -96q-90 0 -154.5 94 t-64.5 221z" />
<glyph unicode="q" horiz-adv-x="1103" d="M37 524q0 -257 111 -416q117 -165 311 -165q151 0 254 112v-479h243v1514h-198l-19 -107q-55 66 -128.5 98.5t-161.5 32.5t-168 -44t-135 -123q-109 -159 -109 -423zM297 531q0 183 55.5 276.5t147.5 93.5q90 0 150 -95q63 -97 63 -261v-43q0 -144 -67 -247 q-63 -97 -145.5 -97t-143 95t-60.5 278z" />
<glyph unicode="r" horiz-adv-x="653" d="M70 -35h243v533q0 186 61.5 285.5t153.5 99.5l99 -15v234l-101 12q-143 0 -237 -143l-10 119h-209v-1125z" />
<glyph unicode="s" horiz-adv-x="868" d="M14 117l39 -28q86 -61 186.5 -103.5t171 -42.5t145.5 25.5t128 71.5q113 98 113 248t-76 233t-225 124q-163 43 -191 107q-8 18 -8 53t31.5 65.5t107.5 30.5q64 0 172 -87q25 -19 37 -30l117 160l-36 26q-195 144 -302 144q-168 0 -272 -89q-111 -94 -111 -251 q0 -204 189 -292q57 -27 134 -48q177 -48 177 -147q0 -70 -87 -95q-24 -6 -58 -16q-12 -4 -25 -4q-25 0 -57 12q-87 34 -158 96l-27 25z" />
<glyph unicode="t" horiz-adv-x="677" d="M-43 881h190v-592q0 -168 86 -257t254 -89q93 0 197 28v222q-43 -12 -62 -19q-58 -20 -112 -20q-119 0 -119 165v564h232v211h-232v299l-244 -58v-243h-190v-211z" />
<glyph unicode="u" d="M98 416q0 -219 88 -346t267 -127t295 153l28 -131h191v1125h-244v-562q0 -170 -69 -272q-64 -96 -158 -96q-70 0 -112 60.5t-42 197.5v672h-244v-674z" />
<glyph unicode="v" horiz-adv-x="882" d="M-51 1090l358 -1125h240l352 1125h-242l-219 -777l-221 777h-268z" />
<glyph unicode="w" horiz-adv-x="1452" d="M-45 1090l313 -1125h221l199 752l207 -752h221l301 1125h-233l-180 -738l-193 738h-233l-187 -736l-176 736h-260z" />
<glyph unicode="x" horiz-adv-x="892" d="M-59 -35h276l209 385l209 -385h291l-357 600l316 525h-269l-176 -332l-170 332h-293l322 -539z" />
<glyph unicode="y" horiz-adv-x="874" d="M-55 1090l360 -1100l14 -47q-41 -150 -127 -173q-26 -6 -55 -6l-127 15l-12 -207l158 -23q224 0 315 194q29 62 53 142l361 1205h-242l-219 -754l-215 754h-264z" />
<glyph unicode="z" horiz-adv-x="897" d="M23 -35h817v213h-525l510 733v179h-768v-213h453l-487 -715v-197z" />
<glyph unicode="{" horiz-adv-x="604" d="M23 485q84 -12 117.5 -52t33.5 -138v-377q0 -102 64 -178q74 -90 192 -90h150v196h-115q-23 0 -41 16.5t-18 88.5v350q0 207 -109 283q111 82 111 284v351q0 72 17 89t40 17h115v195h-150q-119 0 -194 -90q-64 -79 -64 -179v-377q0 -98 -33 -138t-116 -52v-199z" />
<glyph unicode="|" horiz-adv-x="481" d="M117 -57h223v1581h-223v-1581z" />
<glyph unicode="}" horiz-adv-x="604" d="M0 -156v-194h147q120 0 194 90q65 79 65 178v377q0 96 32.5 137t118.5 53v199q-86 12 -120 53t-34 137v377q0 165 -144 243q-48 26 -112 26h-147v-197h113q23 0 41 -16.5t18 -87.5v-351q0 -205 109 -284q-111 -77 -111 -283v-350q0 -72 -17.5 -89.5t-39.5 -17.5h-113z " />
<glyph unicode="~" horiz-adv-x="1161" d="M76 451l157 -119q20 100 50 142t53 42q52 0 194 -89t246 -89q97 0 172 88q71 83 88 207l-159 119q-16 -100 -47 -142.5t-54 -42.5q-46 0 -191 89t-247 89q-97 0 -172 -88q-74 -86 -90 -206z" />
<glyph unicode="&#xa1;" horiz-adv-x="657" d="M186 -412h301l-49 1114h-200l-31 -624zM193 797l290 2v280h-290v-282z" />
<glyph unicode="&#xa2;" horiz-adv-x="1105" d="M143 620q0 -246 131 -403q50 -62 125 -106l-51 -322h189l43 266h41q95 0 234 89q52 34 69 48l51 41l-43 58l-88 106l-24 -21q-51 -44 -110 -76t-85 -32l-11 2l105 658q12 -8 49 -28.5t64.5 -36t31.5 -17.5l127 170l-25 14q-26 14 -63 34q-74 39 -149 81l43 274h-189 l-39 -241q-184 -16 -305 -164t-121 -394zM401 595q0 177 66 275q26 41 63 66l-86 -541q-43 97 -43 200z" />
<glyph unicode="&#xa3;" horiz-adv-x="1105" d="M14 -33l793 8q63 0 124.5 21.5t72.5 27.5l30 15l-96 217l-42 -8q-247 -47 -341 -47h-84q29 61 37 124.5t12 133.5l12 198h283v189h-274l-4 133q-6 202 114 253q35 15 64.5 15t65.5 -19q51 -26 133 -78l26 -17l94 215l-34 20q-78 49 -162 79t-158.5 30t-156 -40 t-137.5 -109q-116 -142 -112 -349v-135h-168v-189h166l-10 -219q-6 -104 -33.5 -156.5t-89.5 -78.5h-45l-80 4v-238z" />
<glyph unicode="&#xa5;" horiz-adv-x="1105" d="M-45 1454l315 -616h-180v-189h277l32 -61v-43h-309v-189h309v-391h263v393h299v189h-302v41l31 63h271v189h-175l304 614h-271l-282 -600l-287 600h-295z" />
<glyph unicode="&#xa6;" horiz-adv-x="481" d="M117 -57h223v645h-223v-645zM117 879l223 2v643h-223v-645z" />
<glyph unicode="&#xa7;" horiz-adv-x="1116" d="M96 -164q59 -90 172 -140q96 -42 201.5 -42t192 23.5t149.5 68.5q139 99 139 264.5t-125 259.5q146 114 146 295q0 219 -277 348l-84 39q-129 39 -180 80t-51 102.5t54 95.5t140 34q119 0 230 -131l129 161q-84 137 -258 172q-51 11 -121 11t-148.5 -23.5t-136.5 -69.5 q-129 -103 -129 -266.5t125 -257.5q-145 -113 -145 -295q0 -109 65.5 -194.5t210.5 -153.5l86 -39q127 -39 178.5 -80t51.5 -101.5t-62.5 -95t-163.5 -34.5q-143 0 -262 131zM356 595q0 48 23.5 95t58.5 76l189 -82q61 -27 83.5 -62.5t22.5 -84.5h-2q0 -47 -22.5 -94.5 t-57.5 -75.5l-188 82q-61 27 -84 62.5t-23 83.5z" />
<glyph unicode="&#xa8;" horiz-adv-x="684" d="M-16 1346q0 -59 42 -101.5t101 -42.5t101 42t42 102q0 59 -42 100t-101 41t-101 -41t-42 -100zM332 1346q0 -59 42 -101.5t101 -42.5t101 42t42 102q0 59 -42 101t-101 42t-101 -42t-42 -101z" />
<glyph unicode="&#xa9;" horiz-adv-x="1519" d="M14 653q0 -145 56.5 -275t152.5 -226.5t226.5 -152.5t276.5 -56t275 56t226.5 152.5t154 226.5t56.5 275t-56.5 274.5t-152.5 226.5t-226.5 153.5t-276.5 56.5t-276.5 -56.5t-226.5 -153.5t-152.5 -226t-56.5 -275zM236 653q0 210 145 359q146 149 346 149 q202 0 345 -149q145 -152 145 -359h-3q0 -207 -144 -358q-142 -150 -345 -150t-345 150q-144 151 -144 358zM336 649q0 -190 116 -312q117 -122 298 -122q133 0 228 87q101 93 132 276l-74 -17h-131q-26 -155 -151 -155q-102 0 -156.5 69.5t-54.5 178t53 173t136.5 64.5 t122 -40t54.5 -103l201 -9q-25 164 -121 253t-237 89q-193 0 -306 -123q-110 -121 -110 -309z" />
<glyph unicode="&#xaa;" horiz-adv-x="681" d="M27 976q0 -109 70.5 -170t179.5 -61t186 66l2 -51h145v69q-2 0 10.5 18.5t12.5 49.5v289q0 147 -64.5 219t-212.5 72q-104 0 -178 -39t-102 -111l90 -115q39 66 79 89.5t93 23.5t80.5 -24.5t30.5 -83.5l-132 -3q-131 -2 -210.5 -65.5t-79.5 -172.5zM221 968.5 q0 24.5 9.5 43t31.5 32.5q47 33 152 29l37 -2l-2 -10q0 -68 -39 -115t-92.5 -47t-75 22.5t-21.5 47z" />
<glyph unicode="&#xab;" horiz-adv-x="929" d="M51 524l236 -377h202l-182 394l182 393h-202l-236 -377v-33zM395 524l236 -377l203 3l-183 391l183 393h-203l-236 -377v-33z" />
<glyph unicode="&#xac;" horiz-adv-x="1519" d="M96 946q0 -135 50.5 -255t137.5 -210t202.5 -142t242.5 -52q243 0 428 168h-129l-338 467l-82 -125v-342h-133v983h133v-494l375 494h164l-346 -410l383 -547q88 90 138 210t50 255t-50 256t-137 211t-203 142.5t-248 52.5t-247.5 -52.5t-202.5 -142.5t-137.5 -211 t-50.5 -256zM913 950l146 70l-146 67l39 68l133 -90l-14 160h78l-14 -160l133 90l39 -68l-146 -67l146 -70l-39 -67l-133 92l14 -160h-78l14 160l-133 -92z" />
<glyph unicode="&#xad;" horiz-adv-x="522" d="M-8 539h510v190h-510v-190z" />
<glyph unicode="&#xae;" horiz-adv-x="1519" d="M14 653q0 -145 56.5 -275t152.5 -226.5t226.5 -152.5t276.5 -56t275 56t226.5 152.5t154 226.5t56.5 275t-56.5 274.5t-152.5 226.5t-226.5 153.5t-276.5 56.5t-276.5 -56.5t-226.5 -153.5t-152.5 -226t-56.5 -275zM236 653q0 210 145 359q146 149 346 149 q202 0 345 -149q145 -152 145 -359h-3q0 -207 -144 -358q-142 -150 -345 -150t-345 150q-144 151 -144 358zM436 313l6 -26v-47h191v45l6 26v262h47l207 -331l223 -6l-225 348q194 32 194 241q0 104 -70.5 170t-223.5 66h-351v-47l-4 -27v-674zM637 743v150h137 q111 0 111 -68h-2q0 -41 -16.5 -61.5t-86.5 -20.5h-143z" />
<glyph unicode="&#xaf;" horiz-adv-x="671" d="M6 1262l639 2v186h-639v-188z" />
<glyph unicode="&#xb0;" horiz-adv-x="768" d="M59 1141q0 -122 91 -216q87 -91 219 -91q124 0 216 90q91 89 91 218q0 64 -24.5 119.5t-65.5 97.5q-89 91 -219 91q-124 0 -216 -90t-92 -219zM256 1143q0 47 33 79.5t80 32.5t79.5 -32.5t32.5 -79.5h-2q0 -47 -31.5 -80t-78.5 -33t-80 33t-33 80z" />
<glyph unicode="&#xb1;" horiz-adv-x="1163" d="M41 -35h1034v230h-1034v-230zM41 586h403v-375h228v377h403v227h-405v375h-228v-377h-401v-227z" />
<glyph unicode="&#xb2;" horiz-adv-x="681" d="M16 541h652l6 164h-385l160 137q131 111 185 242q23 53 23 112t-24.5 111.5t-67.5 89.5q-91 78 -233 78q-92 0 -175 -44.5t-132 -132.5l112 -139q23 76 72 115t111 39t99.5 -35t37.5 -87t-35 -109.5t-88 -104.5l-318 -275v-161z" />
<glyph unicode="&#xb3;" horiz-adv-x="681" d="M6 674q37 -70 121 -109t174 -39t156.5 18.5t116.5 53.5q104 74 104 216t-135 206q121 75 121 190q0 120 -96 194q-92 71 -210 71q-226 0 -327 -144q22 -28 32.5 -45.5t23.5 -33t48 -35.5q66 98 191 98q72 0 103.5 -31t31.5 -78t-46 -77.5t-136 -30.5h-121v-162h127 q190 0 190 -125q0 -53 -43 -87t-137 -34q-134 0 -191 127z" />
<glyph unicode="&#xb4;" horiz-adv-x="612" d="M61 1196l164 -68l355 277l-205 111l-146 -156z" />
<glyph unicode="&#xb5;" d="M96 -424h248v391q65 -24 131 -24q156 0 254 125v-103h238v1125h-246v-562q0 -170 -69 -272q-64 -96 -156 -96q-156 0 -156 258v672h-244v-1514z" />
<glyph unicode="&#xb6;" horiz-adv-x="1114" d="M2 985q0 -185 114 -306q116 -124 287 -136v-877h226v1585h96v-1585h225v1661h54v127h-535q-207 0 -337 -129q-130 -128 -130 -340z" />
<glyph unicode="&#xb7;" horiz-adv-x="538" d="M133 459l299 2v297h-299v-299z" />
<glyph unicode="&#xb8;" horiz-adv-x="563" d="M115 -379q104 -65 207 -65q109 0 182 54q76 55 76 142.5t-58.5 137t-138.5 49.5l-51 -9l33 -49l90 154h-158l-104 -195l32 -59l97 14q29 0 43 -14t14 -30.5t-16.5 -33t-45.5 -16.5q-54 0 -84 15.5t-61 27.5z" />
<glyph unicode="&#xb9;" horiz-adv-x="681" d="M47 1253l72 -153q113 70 178 121v-646l195 3l-5 884h-153q-61 -61 -130 -108t-157 -101z" />
<glyph unicode="&#xba;" horiz-adv-x="720" d="M27 1112q0 -156 93 -260q96 -107 240 -107q145 0 241 107q93 104 93 260q0 159 -91 260q-94 105 -243 105q-148 0 -242 -105q-91 -101 -91 -260zM221 1111q0 103 41 157.5t99 54.5t98.5 -54.5t40.5 -156.5h-2q0 -104 -39 -157.5t-99 -53.5q-59 0 -99 53.5t-40 156.5z" />
<glyph unicode="&#xbb;" horiz-adv-x="929" d="M39 147h203l231 377v33l-231 377h-203l180 -393zM383 147h203l233 377v33l-233 377h-203l180 -393z" />
<glyph unicode="&#xbc;" horiz-adv-x="1677" d="M-8 1253l71 -153q118 72 179 121v-646l194 3l-4 884h-153q-61 -61 -130 -108t-157 -101zM307 -59h215l852 1538h-213zM905 160h410v-195h194l-4 70v127h140v160h-140v565h-221l-379 -592v-135zM1135 319l180 314v-314h-180z" />
<glyph unicode="&#xbd;" horiz-adv-x="1677" d="M-10 1253l71 -153q118 72 179 121v-646l194 3l-4 884h-154q-61 -61 -129.5 -108t-156.5 -101zM242 -59h215l852 1538h-213zM997 -35h652l6 164h-385l160 137q130 110 186 242q22 53 22 112t-24.5 111.5t-67.5 89.5q-91 78 -233 78q-92 0 -175 -44t-132 -132l112 -139 q23 76 72 114.5t111 38.5t99.5 -34.5t37.5 -86.5q0 -104 -123 -215l-318 -274v-162z" />
<glyph unicode="&#xbe;" horiz-adv-x="1677" d="M-18 674q37 -70 120.5 -109t174 -39t157 18.5t115.5 53.5q104 74 104 216.5t-135 205.5q121 75 121 190q0 121 -95 194q-92 71 -210 71q-227 0 -328 -144q28 -35 36 -49q19 -36 69 -65q66 98 190 98q72 0 103.5 -31t31.5 -78t-46 -77.5t-136 -30.5h-121v-162h127 q96 0 143.5 -33t47.5 -89t-43 -90t-138 -34q-133 0 -190 127zM348 -59h215l852 1538h-213zM915 160h410v-195h195l-4 70v127h139v160h-139v565h-222l-379 -592v-135zM1145 319l180 314v-314h-180z" />
<glyph unicode="&#xbf;" horiz-adv-x="989" d="M41 -27q0 -76 30.5 -148.5t86.5 -129.5q124 -125 327 -125q272 0 412 266q-36 32 -49 68q-29 74 -88 82q-99 -183 -252 -183q-98 0 -147.5 50.5t-49.5 135.5q0 145 144 251q98 94 123 152q38 86 38 192v118h-241v-108q0 -61 -17 -94q-27 -50 -92 -115 q-153 -108 -206 -275q-19 -61 -19 -137zM348 799l291 2v280h-291v-282z" />
<glyph unicode="&#xc0;" horiz-adv-x="1226" d="M-41 -35h256l115 385h497l123 -385h273l-500 1489h-260zM246 1753l354 -276l164 67l-168 164l-147 156zM403 569l179 549l176 -549h-355z" />
<glyph unicode="&#xc1;" horiz-adv-x="1226" d="M-41 -35h256l115 385h497l123 -385h273l-500 1489h-260zM403 569l179 549l176 -549h-355zM430 1544l164 -67l354 276l-205 111l-145 -156z" />
<glyph unicode="&#xc2;" horiz-adv-x="1226" d="M-41 -35h256l115 385h497l123 -385h273l-500 1489h-260zM231 1522l244 -13l113 148l114 -148l246 13l-293 340h-135zM403 569l179 549l176 -549h-355z" />
<glyph unicode="&#xc3;" horiz-adv-x="1226" d="M-41 -35h256l115 385h497l123 -385h273l-500 1489h-260zM211 1597l151 -49q31 90 76 90t108 -34q116 -62 195 -62q148 0 222 236l-154 49q-31 -90 -76 -90t-109 34q-115 62 -193 62q-146 0 -220 -236zM403 569l179 549l176 -549h-355z" />
<glyph unicode="&#xc4;" horiz-adv-x="1226" d="M-41 -35h256l115 385h497l123 -385h273l-500 1489h-260zM279 1638q0 -59 42 -101t101 -42t101 42t42 101t-42 101.5t-101 42.5t-101 -42t-42 -102zM403 569l179 549l176 -549h-355zM627 1638q0 -59 42 -101t101 -42t101 42t42 101t-42 101.5t-101 42.5t-101 -42t-42 -102 z" />
<glyph unicode="&#xc5;" horiz-adv-x="1226" d="M-41 -35h256l115 385h497l123 -385h273l-500 1489h-260zM371 1696q0 -87 65 -153q62 -64 152 -64t152 64q65 66 65 153q0 88 -64.5 152.5t-152.5 64.5t-152.5 -64.5t-64.5 -152.5zM403 567l179 551l176 -551h-355zM524 1696q0 29 17.5 46t46.5 17t46 -17.5t17 -45.5h-2 q0 -29 -16.5 -46.5t-44.5 -17.5q-29 0 -46.5 17.5t-17.5 46.5z" />
<glyph unicode="&#xc6;" horiz-adv-x="1853" d="M-59 -35h276l197 395h444l12 -395h838v238h-588l-12 422h494v231h-502l-13 363h601v233l-949 4zM530 584l304 557l18 -557h-322z" />
<glyph unicode="&#xc7;" horiz-adv-x="1159" d="M49 705q0 -287 131 -486q136 -205 352 -258l-65 -121l33 -59l96 14q29 0 43 -14t14 -30.5t-16 -33t-45 -16.5q-55 0 -85 15.5t-61 27.5l-57 -123q104 -65 207 -65q109 0 182 54q76 55 76 141.5t-53 133.5t-129 52l4 8h6q108 0 272 89q62 34 83 48l63 41l-119 180 q-193 -129 -279 -129t-154.5 38t-118.5 108q-105 145 -105 393q0 247 105 392q101 140 276 140q89 0 268 -149l121 176l-36 32q-99 86 -197.5 129.5t-170.5 43.5q-293 0 -468 -215q-173 -214 -173 -557z" />
<glyph unicode="&#xc8;" horiz-adv-x="1083" d="M125 -35h854v236h-594v424h551v231h-551v363h502v235h-762v-1489zM205 1753l354 -276l164 67l-168 164l-147 156z" />
<glyph unicode="&#xc9;" horiz-adv-x="1083" d="M125 -35h854v236h-594v424h551v231h-551v363h502v235h-762v-1489zM348 1544l164 -67l354 276l-204 111l-146 -156z" />
<glyph unicode="&#xca;" horiz-adv-x="1083" d="M125 -35h854v236h-594v424h551v231h-551v363h502v235h-762v-1489zM170 1522l244 -13l112 148l115 -148l246 13l-293 340h-135z" />
<glyph unicode="&#xcb;" horiz-adv-x="1083" d="M125 -35h854v236h-594v424h551v231h-551v363h502v235h-762v-1489zM176 1700q0 -59 42 -101.5t101 -42.5q60 0 102 42t42 102q0 59 -42 101t-102 42q-59 0 -101 -42t-42 -101zM524 1700q0 -59 42 -101.5t102 -42.5q59 0 101 42t42 102q0 59 -42 101t-101 42t-101.5 -42 t-42.5 -101z" />
<glyph unicode="&#xcc;" horiz-adv-x="514" d="M-61 1753l354 -276l164 67l-168 164l-148 156zM133 -35h262v1489h-262v-1489z" />
<glyph unicode="&#xcd;" horiz-adv-x="514" d="M102 1544l164 -67l355 276l-205 111l-146 -156zM133 -35h262v1489h-262v-1489z" />
<glyph unicode="&#xce;" horiz-adv-x="514" d="M-104 1522l243 -13l113 148l115 -148l245 13l-293 340h-135zM133 -35h262v1489h-262v-1489z" />
<glyph unicode="&#xcf;" horiz-adv-x="514" d="M-71 1699.5q-1 -59.5 41 -101.5t101.5 -40.5t101.5 42t42 100.5q0 59 -42 101t-101 42t-100.5 -42t-42.5 -101.5zM133 -35h262v1489h-262v-1489zM276 1700q0 -59 42 -100.5t101.5 -42.5t101.5 41t41 101.5t-42 101.5t-100 42t-101.5 -42t-42.5 -101z" />
<glyph unicode="&#xd0;" horiz-adv-x="1347" d="M-20 645h135v-680h458q309 0 486 207q174 203 174 540q0 163 -47 297t-134 232q-184 207 -491 211l-448 8v-618h-133v-197zM373 199v448h313v197h-313v377h186q193 0 299.5 -133.5t106.5 -380.5h-2q0 -246 -101.5 -377t-288.5 -131h-200z" />
<glyph unicode="&#xd1;" horiz-adv-x="1345" d="M125 -35h250v1090l528 -1090h275v1489h-250v-1036l-494 1036h-309v-1489zM279 1542l151 -49q18 53 35.5 70.5t40.5 17.5q47 0 109 -33q116 -61 193 -61q146 0 220 235l-154 50q-31 -91 -77 -91q-39 0 -125 43q-90 51 -171 51.5t-134.5 -61t-87.5 -172.5z" />
<glyph unicode="&#xd2;" horiz-adv-x="1386" d="M49 709q0 -337 166 -549q169 -217 444 -217q276 0 445 217q166 212 166 549q0 338 -166 551q-170 217 -445 217q-274 0 -444 -217q-166 -213 -166 -551zM319 709q0 247 95 395q91 141 245 141q155 0 246 -141q94 -146 94 -395h-2q0 -249 -94 -393q-94 -142 -244 -142 q-151 0 -245 142q-95 145 -95 393zM348 1753l354 -276l164 67l-168 164l-147 156z" />
<glyph unicode="&#xd3;" horiz-adv-x="1386" d="M49 709q0 -337 166 -549q169 -217 444 -217q276 0 445 217q166 212 166 549q0 338 -166 551q-170 217 -445 217q-274 0 -444 -217q-166 -213 -166 -551zM319 709q0 247 95 395q91 141 245 141q155 0 246 -141q94 -146 94 -395h-2q0 -249 -94 -393q-94 -142 -244 -142 q-151 0 -245 142q-95 145 -95 393zM553 1544l164 -67l354 276l-205 111l-145 -156z" />
<glyph unicode="&#xd4;" horiz-adv-x="1386" d="M49 709q0 -337 166 -549q169 -217 444 -217q276 0 445 217q166 212 166 549q0 338 -166 551q-170 217 -445 217q-274 0 -444 -217q-166 -213 -166 -551zM309 1522l244 -13l113 148l114 -148l246 13l-293 340h-135zM319 709q0 247 95 395q91 141 245 141q155 0 246 -141 q94 -146 94 -395h-2q0 -249 -94 -393q-94 -142 -244 -142q-151 0 -245 142q-95 145 -95 393z" />
<glyph unicode="&#xd5;" horiz-adv-x="1386" d="M49 709q0 -337 166 -549q169 -217 444 -217q276 0 445 217q166 212 166 549q0 338 -166 551q-170 217 -445 217q-274 0 -444 -217q-166 -213 -166 -551zM287 1597l151 -49q31 90 76 90t108 -34q116 -62 195 -62q147 0 221 236l-153 49q-31 -90 -76 -90t-109 34 q-115 62 -193 62q-146 0 -220 -236zM319 709q0 247 95 395q91 141 245 141q155 0 246 -141q94 -146 94 -395h-2q0 -249 -94 -393q-94 -142 -244 -142q-151 0 -245 142q-95 145 -95 393z" />
<glyph unicode="&#xd6;" horiz-adv-x="1386" d="M49 709q0 -337 166 -549q169 -217 444 -217q276 0 445 217q166 212 166 549q0 338 -166 551q-170 217 -445 217q-274 0 -444 -217q-166 -213 -166 -551zM319 709q0 247 95 395q91 141 245 141q155 0 246 -141q94 -146 94 -395h-2q0 -249 -94 -393q-94 -142 -244 -142 q-151 0 -245 142q-95 145 -95 393zM365 1638q0 -59 41 -101t100 -42t102 41q41 43 41 102t-41 101q-43 41 -102 41t-100 -41t-41 -101zM712 1638.5q1 -59.5 42 -101.5t100 -42t102 41q41 43 41 102t-41 101q-43 41 -102 41t-101 -41t-41 -100.5z" />
<glyph unicode="&#xd7;" horiz-adv-x="1257" d="M51 156l158 -158l393 393l393 -393l158 158l-393 393l393 393l-158 158l-393 -393l-393 393l-158 -158l393 -393z" />
<glyph unicode="&#xd8;" horiz-adv-x="1386" d="M49 714.5q0 -333.5 164 -554.5q2 -2 6 -10l-4 43l-156 -242l172 -49l95 143q127 -102 329 -102q277 0 444 217q163 211 163 548t-166 552q0 4 -9 12l5 -43l155 239l-172 50l-94 -142q-127 100 -326 101q-275 0 -443 -217q-163 -212 -163 -545.5zM319 686.5 q0 149.5 25 248.5t69 169q89 141 242 141q121 0 193 -78l-486 -747q-43 117 -43 266.5zM461 254l485 747q45 -115 45 -266t-24.5 -250.5t-68.5 -168.5q-92 -142 -243 -142q-121 0 -194 80z" />
<glyph unicode="&#xd9;" horiz-adv-x="1333" d="M117 528q0 -276 131 -430.5t387 -154.5q250 0 383 159q131 154 131 433v919h-248v-887q0 -207 -61.5 -298t-199.5 -91t-200.5 87t-62.5 288v901h-260v-926zM348 1753l354 -276l164 67l-168 164l-147 156z" />
<glyph unicode="&#xda;" horiz-adv-x="1333" d="M117 528q0 -276 131 -430.5t387 -154.5q250 0 383 159q131 154 131 433v919h-248v-887q0 -207 -61.5 -298t-199.5 -91t-200.5 87t-62.5 288v901h-260v-926zM512 1544l164 -67l354 276l-205 111l-145 -156z" />
<glyph unicode="&#xdb;" horiz-adv-x="1333" d="M117 528q0 -276 131 -430.5t387 -154.5q250 0 383 159q131 154 131 433v919h-248v-887q0 -207 -61.5 -298t-199.5 -91t-200.5 87t-62.5 288v901h-260v-926zM287 1522l243 -13l113 148l115 -148l246 13l-293 340h-136z" />
<glyph unicode="&#xdc;" horiz-adv-x="1333" d="M117 528q0 -276 131 -430.5t387 -154.5q250 0 383 159q131 154 131 433v919h-248v-887q0 -207 -61.5 -298t-199.5 -91t-200.5 87t-62.5 288v901h-260v-926zM334 1638q0 -59 42 -101t101 -42t101.5 42t42.5 101q0 60 -42 102t-102 42q-59 0 -101 -42t-42 -102zM682 1638 q0 -59 42 -101t101 -42q60 0 102 42t42 101t-42 101.5t-102 42.5q-59 0 -101 -42t-42 -102z" />
<glyph unicode="&#xdd;" horiz-adv-x="1198" d="M-57 1454l501 -868v-621h261v621l491 866h-281l-329 -608l-338 610h-305zM410 1544l163 -67l355 276l-205 111l-145 -156z" />
<glyph unicode="&#xde;" horiz-adv-x="1083" d="M92 -35h262v340h207q207 0 333 122q128 124 128 337t-125 334t-350 121h-195v235h-260v-1489zM352 535v450h174q104 0 166 -60.5t62 -162.5h-2q0 -113 -56.5 -171.5t-160.5 -58.5z" />
<glyph unicode="&#xdf;" horiz-adv-x="1161" d="M39 854h51v-917h246v1026q0 286 138 347q40 17 91 17t100.5 -44t49.5 -136q0 -193 -246 -205q-54 0 -80 -72q-2 -6 -6 -14v-90q0 -74 147 -127q162 -34 222 -97q53 -54 53 -151q0 -99 -61 -165q-63 -70 -160 -70q-63 0 -162 47l-37 -215q152 -39 238.5 -39t172 35.5 t144.5 95.5q123 127 123 317q0 153 -118 269q-93 92 -216 149l-14 8q119 41 189.5 122t70.5 204q0 162 -119 275q-117 112 -311.5 112t-320.5 -138t-134 -421h-51v-123z" />
<glyph unicode="&#xe0;" horiz-adv-x="1054" d="M51 301q0 -168 99.5 -263t270 -95t286.5 127l6 -105h223v70q-2 0 -2 40v578q0 231 -93 346t-311 115q-131 0 -286 -74q-58 -28 -92 -50l-35 -23l108 -156q157 94 264 94t154 -48t47 -167v-8h-160q-31 0 -59 -4q-195 -14 -307.5 -111.5t-112.5 -265.5zM205 1405l354 -277 l164 68l-168 164l-147 156zM309 288q0 50 16.5 86t53.5 62q77 53 237 49l74 -4l-2 -39q0 -124 -64 -204q-66 -84 -167 -84q-70 0 -109 42t-39 92z" />
<glyph unicode="&#xe1;" horiz-adv-x="1054" d="M51 301q0 -168 99.5 -263t270 -95t286.5 127l6 -105h223v70q-2 0 -2 40v578q0 231 -93 346t-311 115q-131 0 -286 -74q-58 -28 -92 -50l-35 -23l108 -156q157 94 264 94t154 -48t47 -167v-8h-160q-31 0 -59 -4q-195 -14 -307.5 -111.5t-112.5 -265.5zM268 1192l154 -64 l373 297l-119 52l-109 39l-139 -154zM309 288q0 50 16.5 86t53.5 62q77 53 237 49l74 -4l-2 -39q0 -124 -64 -204q-66 -84 -167 -84q-70 0 -109 42t-39 92z" />
<glyph unicode="&#xe2;" horiz-adv-x="1054" d="M51 301q0 -168 99.5 -263t270 -95t286.5 127l6 -105h223v70q-2 0 -2 40v578q0 231 -93 346t-311 115q-131 0 -286 -74q-58 -28 -92 -50l-35 -23l108 -156q157 94 264 94t154 -48t47 -167v-8h-160q-31 0 -59 -4q-195 -14 -307.5 -111.5t-112.5 -265.5zM119 1167l243 -12 l113 148l115 -148l246 12l-293 340h-135zM309 288q0 50 16.5 86t53.5 62q77 53 237 49l74 -4l-2 -39q0 -124 -64 -204q-66 -84 -167 -84q-70 0 -109 42t-39 92z" />
<glyph unicode="&#xe3;" horiz-adv-x="1054" d="M51 301q0 -168 99.5 -263t270 -95t286.5 127l6 -105h223v70q-2 0 -2 40v578q0 231 -93 346t-311 115q-131 0 -286 -74q-58 -28 -92 -50l-35 -23l108 -156q157 94 264 94t154 -48t47 -167v-8h-160q-31 0 -59 -4q-195 -14 -307.5 -111.5t-112.5 -265.5zM139 1243l152 -49 q31 90 76 90t100.5 -30.5t94.5 -41.5q78 -24 89 -24q94 0 149.5 62t90.5 173l-154 50q-31 -91 -76 -91t-108 34q-117 63 -193 63q-147 0 -221 -236zM309 288q0 50 16.5 86t53.5 62q77 53 237 49l74 -4l-2 -39q0 -124 -64 -204q-66 -84 -167 -84q-70 0 -109 42t-39 92z" />
<glyph unicode="&#xe4;" horiz-adv-x="1054" d="M29 301q0 -168 99 -263t270.5 -95t285.5 127l6 -105h223v70q-2 0 -2 40v578q0 231 -93 346t-310 115q-131 0 -286 -74q-58 -28 -93 -50l-35 -23l109 -156q157 94 263.5 94t154 -48t47.5 -167v-8h-160q-31 0 -59 -4q-195 -14 -307.5 -111.5t-112.5 -265.5zM147 1284 q0 -59 42 -100t102 -41q59 0 101 41t42 100t-42 101t-101 42t-101.5 -42t-42.5 -101zM287 288q0 50 16 86t53 62q77 53 238 49l74 -4l-2 -39q0 -125 -64 -204q-67 -84 -168 -84q-70 0 -108.5 42t-38.5 92zM557 1284q0 -59 42 -100t101 -41t101.5 41t42.5 100t-42 101 t-102 42q-59 0 -101 -42t-42 -101z" />
<glyph unicode="&#xe5;" horiz-adv-x="1054" d="M51 301q0 -168 99.5 -263t270 -95t286.5 127l6 -105h223v70q-2 0 -2 40v578q0 231 -93 346t-311 115q-131 0 -286 -74q-58 -28 -92 -50l-35 -23l108 -156q157 94 264 94t154 -48t47 -167v-8h-160q-31 0 -59 -4q-195 -14 -307.5 -111.5t-112.5 -265.5zM299 1352 q0 -87 65 -153q62 -64 152 -64t152 64q65 66 65 153q0 88 -64.5 152.5t-152.5 64.5t-152.5 -64.5t-64.5 -152.5zM309 288q0 50 16.5 86t53.5 62q77 53 237 49l74 -4v-39q0 -122 -66 -204q-66 -84 -167 -84q-70 0 -109 42t-39 92zM453 1352q0 29 17 46t46 17t46.5 -17.5 t17.5 -45.5h-2q0 -29 -16.5 -46.5t-45.5 -17.5t-46 17.5t-17 46.5z" />
<glyph unicode="&#xe6;" horiz-adv-x="1720" d="M45 299q0 -170 111.5 -263t302.5 -93q146 0 269 125q38 38 65 86q125 -211 391 -211q134 0 346 98l39 18l-51 93l-45 90q-168 -84 -285 -84t-182 100q-51 76 -66 207h645l25 45q-13 436 -256 561q-84 43 -199 43q-195 0 -307 -141q-111 141 -322 141q-133 0 -288 -74 q-58 -28 -92 -50l-35 -23l108 -156q157 94 269 94t162 -49t50 -166v-8h-139q-266 0 -401 -116q-115 -97 -115 -267zM303 288q0 50 16.5 86t54.5 62q79 53 242 49l84 -4l-2 -39q0 -125 -66 -204q-69 -84 -175 -84q-74 0 -114 42t-40 92zM944 666q14 85 53 147q57 92 146.5 92 t143.5 -60t59 -179h-402z" />
<glyph unicode="&#xe7;" horiz-adv-x="856" d="M23 530q0 -205 94 -360q95 -156 252 -205l-68 -125l33 -59l96 14q29 0 43 -14t14 -30.5t-16 -33t-45 -16.5q-55 0 -85 15.5t-60 27.5l-58 -123q104 -65 207 -65q110 0 182 54q76 55 76 141.5t-53 133.5t-129 52l4 8q96 0 209 83q43 31 55 44l39 39l-113 157 q-53 -63 -130 -97q-29 -13 -60 -13q-100 0 -164.5 96t-64.5 278q0 164 67 268q64 99 160 99q59 0 156 -65q22 -15 32 -23l113 150l-29 23q-163 130 -277 130t-202 -45t-151 -123q-127 -159 -127 -416z" />
<glyph unicode="&#xe8;" horiz-adv-x="1042" d="M35 532q0 -277 129 -430q134 -159 377 -159q135 0 354 77l41 15l-53 94l-43 113q-86 -43 -172 -63.5t-123 -20.5q-217 0 -250 307l676 -2l-19 61q-6 420 -251 547q-83 43 -192.5 43t-196.5 -44t-148 -121q-129 -161 -129 -417zM287 1405l354 -277l164 68l-168 164 l-148 156zM299 666q14 88 51 147q57 92 156 92q74 0 127 -60t63 -179h-397z" />
<glyph unicode="&#xe9;" horiz-adv-x="1042" d="M35 532q0 -277 129 -430q134 -159 377 -159q135 0 354 77l41 15l-53 94l-43 113q-86 -43 -172 -63.5t-123 -20.5q-217 0 -250 307h676l-19 59q-6 420 -251 547q-83 43 -192.5 43t-196.5 -44t-148 -121q-129 -161 -129 -417zM299 666q14 88 51 147q57 92 156 92 q74 0 127 -60t63 -179h-397zM307 1196l164 -68l354 277l-204 111l-146 -156z" />
<glyph unicode="&#xea;" horiz-adv-x="1054" d="M35 532q0 -277 129 -430q134 -159 377 -159q135 0 354 77l41 15l-53 94l-43 113q-86 -43 -172 -63.5t-123 -20.5q-217 0 -250 307l676 -2l-19 61q-6 420 -251 547q-83 43 -192.5 43t-196.5 -44t-148 -121q-129 -161 -129 -417zM150 1167l243 -12l113 148l115 -148l245 12 l-293 340h-135zM299 666q14 88 51 147q57 92 156 92q74 0 127 -60t63 -179h-397z" />
<glyph unicode="&#xeb;" horiz-adv-x="1042" d="M35 532q0 -277 129 -430q134 -159 377 -159q135 0 354 77l41 15l-53 94l-43 113q-86 -43 -172 -63.5t-123 -20.5q-217 0 -250 307l676 -2l-19 61q-6 420 -251 547q-83 43 -192.5 43t-196.5 -44t-148 -121q-129 -161 -129 -417zM147 1284q0 -59 42 -100t102 -41 q59 0 101 41t42 100t-42 101t-101 42t-101.5 -42t-42.5 -101zM299 666q14 88 51 147q57 92 156 92q74 0 127 -60t63 -179h-397zM557 1284q0 -59 42 -100t101 -41t101.5 41t42.5 100t-42 101t-102 42q-59 0 -101 -42t-42 -101z" />
<glyph unicode="&#xec;" horiz-adv-x="528" d="M-61 1405l354 -277l164 68l-168 164l-148 156zM127 -35h248l-4 1125h-244v-1125z" />
<glyph unicode="&#xed;" horiz-adv-x="528" d="M41 1196l164 -68l354 277l-205 111l-145 -156zM127 -35h248l-4 1125h-244v-1125z" />
<glyph unicode="&#xee;" horiz-adv-x="528" d="M-98 1167l243 -12l113 148l115 -148l245 12l-292 340h-136zM127 -35h248l-4 1125h-244v-1125z" />
<glyph unicode="&#xef;" horiz-adv-x="528" d="M-71 1345.5q1 -59.5 42 -101.5t101 -42q59 0 101 42t42 102q0 59 -42 100t-101.5 42t-101.5 -41t-41 -101.5zM127 -35h248l-4 1125h-244v-1125zM276 1346q0 -59 42 -101.5t102 -42.5q59 0 100 42t42 101.5t-41 101.5t-101.5 41t-101.5 -42t-42 -100z" />
<glyph unicode="&#xf0;" horiz-adv-x="1107" d="M35 522q0 -252 133 -414q137 -167 350 -167q216 0 356 176q138 172 138 430q0 423 -367 756l152 94l-129 147l-193 -119q-96 58 -246 113l-172 -139q149 -59 219 -99l-170 -106l136 -141l211 131q34 -27 82 -72h-9q-224 4 -358 -166q-133 -167 -133 -424zM297 526 q0 182 63.5 279.5t162.5 97.5t164 -100.5t65 -280.5h-2q0 -174 -64.5 -270t-163 -96t-162 94t-63.5 276z" />
<glyph unicode="&#xf1;" d="M96 -35h246v561q0 186 66.5 279.5t149.5 93.5q165 0 165 -231v-703h182l62 -2v684q0 213 -89.5 340t-266.5 127t-277 -125v101h-238v-1125zM162 1237l151 -49q30 88 78 88q45 0 107 -33q116 -61 194 -61q146 0 221 233l-153 49q-18 -53 -36.5 -70.5t-41.5 -17.5 q-45 0 -107 33q-116 61 -193 61q-145 0 -220 -233z" />
<glyph unicode="&#xf2;" horiz-adv-x="1107" d="M39 528q0 -250 137 -416q138 -169 352 -169q213 0 352 169q136 166 136 417q0 124 -35 231.5t-99 185.5q-139 168 -354 168q-216 0 -354 -168q-135 -163 -135 -418zM246 1405l354 -277l164 68l-168 164l-147 156zM299 527q0 177 66.5 275.5t162.5 98.5t162 -98t66 -275 h-2q0 -180 -63.5 -276t-162.5 -96q-98 0 -163.5 97t-65.5 274z" />
<glyph unicode="&#xf3;" horiz-adv-x="1107" d="M39 528q0 -250 137 -416q138 -169 352 -169q213 0 352 169q136 166 136 417q0 124 -35 231.5t-99 185.5q-139 168 -354 168q-216 0 -354 -168q-135 -163 -135 -418zM299 527q0 177 66.5 275.5t162.5 98.5t162 -98t66 -275h-2q0 -180 -63.5 -276t-162.5 -96 q-98 0 -163.5 97t-65.5 274zM307 1196l164 -68l354 277l-204 111l-146 -156z" />
<glyph unicode="&#xf4;" horiz-adv-x="1107" d="M39 528q0 -250 137 -416q138 -169 352 -169q213 0 352 169q136 166 136 417q0 124 -35 231.5t-99 185.5q-139 168 -354 168q-216 0 -354 -168q-135 -163 -135 -418zM182 1167l244 -12l113 148l114 -148l246 12l-293 340h-135zM299 527q0 177 66.5 275.5t162.5 98.5 t162 -98t66 -275h-2q0 -180 -63.5 -276t-162.5 -96q-98 0 -163.5 97t-65.5 274z" />
<glyph unicode="&#xf5;" horiz-adv-x="1107" d="M39 528q0 -250 137 -416q138 -169 352 -169q213 0 352 169q136 166 136 417q0 124 -35 231.5t-99 185.5q-139 168 -354 168q-216 0 -354 -168q-135 -163 -135 -418zM160 1243l151 -49q31 90 76 90t109 -34q115 -62 194 -62q147 0 221 235l-153 50q-31 -91 -76 -91 t-108 34q-118 63 -195 63q-145 0 -219 -236zM299 527q0 177 66.5 275.5t162.5 98.5t162 -98t66 -275h-2q0 -180 -63.5 -276t-162.5 -96q-98 0 -163.5 97t-65.5 274z" />
<glyph unicode="&#xf6;" horiz-adv-x="1107" d="M39 528q0 -250 137 -416q138 -169 352 -169q213 0 352 169q136 166 136 417q0 124 -35 231.5t-99 185.5q-139 168 -354 168q-216 0 -354 -168q-135 -163 -135 -418zM209 1346q0 -59 42 -101.5t101 -42.5q60 0 102 42t42 102q0 59 -42 101t-102 42q-59 0 -101 -42 t-42 -101zM299 527q0 177 66.5 275.5t162.5 98.5t162 -98t66 -275h-2q0 -180 -63.5 -276t-162.5 -96q-98 0 -163.5 97t-65.5 274zM557 1346q0 -59 42 -101.5t101 -42.5q60 0 102 42t42 102q0 59 -42 100t-102 41q-59 0 -101 -41t-42 -100z" />
<glyph unicode="&#xf7;" horiz-adv-x="1155" d="M27 434h1030v230h-1030v-230zM424 -12h299v299h-299v-299zM424 813l299 2v297h-299v-299z" />
<glyph unicode="&#xf8;" horiz-adv-x="1107" d="M-14 -90q78 0 97 -9q42 -20 83 -20l98 142q106 -80 264 -80q214 0 354 167q134 162 134 408t-117 406l162 231q-78 0 -99 10q-46 21 -81 21l-101 -146q-104 74 -233.5 74t-219 -45t-153.5 -123q-135 -163 -135 -406t111 -399zM299 528q0 176 66.5 274.5t162.5 98.5 q70 0 121 -47l-334 -473q-16 66 -16 147zM397 213l338 481q21 -74 21 -166q0 -176 -65.5 -274t-154 -98t-139.5 57z" />
<glyph unicode="&#xf9;" d="M96 416q0 -221 88 -347t268 -126t296 153l28 -131h191v1125h-246v-562q0 -170 -69 -272q-64 -96 -156 -96q-156 0 -156 258v672h-244v-674zM287 1384l354 -276l164 68l-168 163l-148 156z" />
<glyph unicode="&#xfa;" d="M96 416q0 -221 88 -347t268 -126t296 153l28 -131h191v1125h-246v-562q0 -170 -69 -272q-64 -96 -156 -96q-156 0 -156 258v672h-244v-674zM307 1196l164 -68l354 277l-204 111l-146 -156z" />
<glyph unicode="&#xfb;" d="M96 416q0 -221 88 -347t268 -126t296 153l28 -131h191v1125h-246v-562q0 -170 -69 -272q-64 -96 -156 -96q-156 0 -156 258v672h-244v-674zM184 1167l244 -12l113 148l114 -148l246 12l-293 340h-135z" />
<glyph unicode="&#xfc;" d="M98 416q0 -219 88 -346t267 -127t295 153l28 -131h191v1125h-244v-562q0 -170 -69 -272q-64 -96 -158 -96q-70 0 -112 60.5t-42 197.5v672h-244v-674zM193 1346q0 -59 40.5 -101.5t101 -42.5t101.5 42t41 102q0 59 -41 100t-101.5 42t-101.5 -41t-40 -101zM541 1346 q0 -59 41 -101.5t101 -42.5t101 42t41 102q0 59 -41 101t-101 41t-101 -42t-41 -100z" />
<glyph unicode="&#xfd;" horiz-adv-x="874" d="M-55 1090l360 -1100l14 -47q-41 -150 -127 -173q-26 -6 -55 -6l-125 23l-12 -215l156 -23q240 0 348 336l383 1202h-242l-221 -751l-215 754h-264zM287 1196l164 -68l354 277l-205 111l-145 -156z" />
<glyph unicode="&#xfe;" horiz-adv-x="1097" d="M111 -424h245v473q102 -106 252 -106q189 0 304 167q112 160 112 416q0 263 -110 420q-117 168 -310 168q-145 0 -250 -123v520h-243v-1935zM352 473v133q26 196 140 268q36 23 75 23q86 0 140.5 -92t54.5 -285h-2q0 -172 -57.5 -267t-133.5 -95q-88 0 -152.5 94 t-64.5 221z" />
<glyph unicode="&#xff;" horiz-adv-x="874" d="M-55 1090l360 -1100l14 -47q-41 -150 -127 -173q-26 -6 -55 -6l-125 23l-12 -215l156 -23q240 0 348 336l383 1202h-242l-221 -751l-215 754h-264zM74 1346q0 -59 42 -101.5t101 -42.5t101 42t42 102q0 59 -42 100t-101 41t-101 -41t-42 -100zM422 1346q0 -59 42 -101.5 t101 -42.5q60 0 102 42t42 102q0 59 -42 101t-102 42q-59 0 -101 -42t-42 -101z" />
<glyph unicode="&#x152;" horiz-adv-x="1855" d="M49 709q0 -340 189 -549q189 -211 505 -211q76 0 140 33q14 8 26.5 15t26.5 15v-47h788v238h-587v422h483v231h-483v363h577v235h-762v-51q-20 10 -35.5 19.5t-36.5 20.5q-53 27 -141 27q-313 0 -501.5 -211.5t-188.5 -549.5zM322 719q0 250 107.5 386t301.5 136 q100 0 155 -75q15 -19 15 -38l-2 -823q0 -48 -51 -87q-50 -40 -126.5 -40t-153 37t-130.5 107q-116 147 -116 397z" />
<glyph unicode="&#x153;" horiz-adv-x="1744" d="M29 528q0 -249 129 -415q133 -170 353 -170t341 176q124 -176 352 -176q130 0 327 117l36 22q-8 16 -21.5 40.5t-27 50.5t-27.5 50.5t-23 40.5q-159 -106 -266 -106t-170 100q-47 76 -59 207h616l21 47q-13 437 -237 559q-79 43 -185 43q-223 0 -332 -166 q-123 166 -354 166q-213 0 -344 -169q-129 -165 -129 -417zM289 527q0 179 65.5 276.5t159.5 97.5t158.5 -97t64.5 -276h-2q0 -180 -62.5 -276t-158.5 -96t-160.5 96t-64.5 275zM977 666q10 78 49 149q57 90 138.5 90t130 -59.5t53.5 -179.5h-371z" />
<glyph unicode="&#x178;" horiz-adv-x="1198" d="M-57 1454l501 -868v-621h261v621l491 866h-281l-329 -608l-338 610h-305zM260 1517q0 -60 41 -102q43 -41 102 -41t101.5 41t41.5 101.5t-42 101.5t-101 41q-59 0 -101 -41t-42 -101zM608 1517q0 -60 41 -102q43 -41 103 -41q59 0 101 41t41 101.5t-42 101.5t-100 41 t-101.5 -41t-42.5 -101z" />
<glyph unicode="&#x2c6;" horiz-adv-x="688" d="M-23 1167l244 -12l113 148l115 -148l245 12l-293 340h-135z" />
<glyph unicode="&#x2dc;" horiz-adv-x="718" d="M-29 1243l152 -49q31 90 76 90t109 -34q115 -62 193 -62q148 0 222 235l-154 50q-31 -91 -75.5 -91t-107.5 34q-118 63 -195 63q-146 0 -220 -236z" />
<glyph unicode="&#x2000;" horiz-adv-x="956" />
<glyph unicode="&#x2001;" horiz-adv-x="1913" />
<glyph unicode="&#x2002;" horiz-adv-x="956" />
<glyph unicode="&#x2003;" horiz-adv-x="1913" />
<glyph unicode="&#x2004;" horiz-adv-x="637" />
<glyph unicode="&#x2005;" horiz-adv-x="478" />
<glyph unicode="&#x2006;" horiz-adv-x="318" />
<glyph unicode="&#x2007;" horiz-adv-x="318" />
<glyph unicode="&#x2008;" horiz-adv-x="239" />
<glyph unicode="&#x2009;" horiz-adv-x="382" />
<glyph unicode="&#x200a;" horiz-adv-x="106" />
<glyph unicode="&#x2010;" horiz-adv-x="522" d="M-8 539h510v190h-510v-190z" />
<glyph unicode="&#x2011;" horiz-adv-x="522" d="M-8 539h510v190h-510v-190z" />
<glyph unicode="&#x2012;" horiz-adv-x="522" d="M-8 539h510v190h-510v-190z" />
<glyph unicode="&#x2013;" horiz-adv-x="1042" d="M-51 436l1061 2v205h-1061v-207z" />
<glyph unicode="&#x2014;" horiz-adv-x="2117" d="M-51 436l2085 2v205h-2085v-207z" />
<glyph unicode="&#x2018;" horiz-adv-x="538" d="M88 1032l4 -135h289l86 569h-201z" />
<glyph unicode="&#x2019;" horiz-adv-x="538" d="M84 897h201l178 434l-4 135h-289z" />
<glyph unicode="&#x201a;" horiz-adv-x="538" d="M84 -311h201l178 434l-4 135h-289z" />
<glyph unicode="&#x201c;" horiz-adv-x="983" d="M129 1012l4 -135h289l86 569h-201zM498 1012l4 -135h289l86 569h-201z" />
<glyph unicode="&#x201d;" horiz-adv-x="983" d="M125 877h201l178 434l-4 135h-289zM494 877h200l178 434l-4 135h-288z" />
<glyph unicode="&#x201e;" horiz-adv-x="983" d="M84 -311h201l178 434l-4 135h-289zM453 -311h200l178 434l-4 135h-288z" />
<glyph unicode="&#x2022;" horiz-adv-x="665" d="M59 713q0 -105 73 -175q75 -71 175 -71q103 0 174.5 71.5t71.5 174.5t-73 174t-175 71q-100 0 -173 -71t-73 -174z" />
<glyph unicode="&#x2026;" horiz-adv-x="1945" d="M119 -35h297v299h-297v-299zM801 -35h297v299h-297v-299zM1483 -35h299v299h-299v-299z" />
<glyph unicode="&#x202f;" horiz-adv-x="382" />
<glyph unicode="&#x2039;" horiz-adv-x="512" d="M33 524l235 -377l203 3l-182 391l182 393h-203l-235 -377v-33z" />
<glyph unicode="&#x203a;" horiz-adv-x="512" d="M20 147h203l234 377v33l-234 377h-203l181 -393z" />
<glyph unicode="&#x205f;" horiz-adv-x="478" />
<glyph unicode="&#x20ac;" horiz-adv-x="1159" d="M-55 471h131q54 -239 215 -383q162 -145 391 -145q108 0 272 89q62 34 83 48l63 43l-119 180q-193 -129 -283 -129q-119 0 -208 78t-132 219h617v191h-649v92q0 20 2 39h647v192h-608q47 125 133 192.5t205 67.5q89 0 268 -149l121 176l-36 32q-99 86 -197.5 129.5 t-192 43.5t-189.5 -35t-174 -100q-156 -129 -219 -357h-141v-192h108q-2 -23 -2 -44v-87h-106v-191z" />
<glyph unicode="&#x2122;" horiz-adv-x="1794" d="M41 1260h223v-721h209v723h221v192h-653v-194zM780 539h201v514l166 -514h153l164 510v-510l209 2v913h-278l-166 -541l-174 541h-275v-915z" />
<glyph unicode="&#xe000;" horiz-adv-x="1085" d="M0 0v1085h1085v-1085h-1085z" />
</font>
</defs>
</svg>
